<?xml version="1.0" encoding="utf-8"?>
<!-- Generator: Adobe Illustrator 24.0.0, SVG Export Plug-In . SVG Version: 6.00 Build 0)  -->
<svg version="1.1" id="Layer_1" xmlns="http://www.w3.org/2000/svg" xmlns:xlink="http://www.w3.org/1999/xlink" x="0px" y="0px"
	 viewBox="0 0 583 97" style="enable-background:new 0 0 583 97;" xml:space="preserve">
<g>
	<g>
		<g>
			<rect x="552" y="68" width="31" height="3"/>
			<rect x="552" y="61" width="31" height="3"/>
		</g>
		<g>
			<polygon points="324,92 323,95 583,95 583,92 			"/>
			<polygon points="325,88 326,85 583,85 583,88 			"/>
		</g>
	</g>
	<g>
		<path d="M315,79l12-70h10l-13,66h21.2c3.7,0,6.8-3,6.8-6.8V41h7v27.9c0,3.4,2.7,6.1,6.1,6.1H392c4,0,5-3,5-6c0-10-15-1-15-17
			c0-6,3-10,7-10h15v6c-11,0-14,0-14,4c0,7,15,5,15,16c0.2,1.2,0.2,2.2,0.1,3.2c-0.3,2,1.3,3.8,3.3,3.8l16.9,0
			c3.1,0,5.7-2.5,5.7-5.7V41h8v28.3c0,3.1,2.5,5.7,5.7,5.7h15.2c3.4,0,6.1-2.7,6.1-6.1V51.7c0-5.9,4.8-10.7,10.7-10.7h5.7
			c5.9,0,10.7,4.8,10.7,10.7v17.2c0,3.4,2.7,6.1,6.1,6.1H520V41h8c0,0.7,0,1.3,0,2c0.4-0.4,4.5-4.1,10-3c4.4,0.9,8,4.4,9,9v21.9
			c0,2.3,1.8,4.1,4.1,4.1H583v6h-36.5c-3.6,0-6.5-2.9-6.5-6.5V53.9c0-3.8-3.1-6.9-6.9-6.9h-0.7c-2.4,0-4.4,2-4.4,4.4V81h-34
			c-1.7,0-3-3-3-3s-1,3-4,3h-15c-3,0-4-4-4-4c0,2.2-2.8,4-5,4h-26c-2.2,0-4-4-4-4s-1.8,4-4,4h-23c-2.2,0-4-4-4-4c0,2.2-1.8,4-4,4
			h-41c-3,0-4-3-4-3c0,1.7-1.3,3-3,3h-27l-3,16h-9L292,1h10L315,79z M478,74h2.9c2.8,0,5-2.3,5-5V53c0-2.8-2.3-5-5-5H478
			c-2.8,0-5,2.3-5,5V69C473,71.7,475.3,74,478,74z"/>
		<circle cx="355" cy="28" r="6"/>
		<path d="M441.2,27.8c0,3.3-2.7,6-6,6s-6-2.7-6-6s2.7-6,6-6S441.2,24.5,441.2,27.8z M404,33l20-4v-1l-6-1.5l8-1.5v-1l-12,2v1l6,1.5
			L404,32V33z M416,13l12,5h2l-1-4l4,3h2l-7-6l-1,1l1,4l-11-4L416,13z M438,17l4-3l-1,4h2l12-5l-1-1l-11,4l1-4l-1-1l-7,6H438z
			 M445,24v1l8,1.6l-6,1.4v1l19,4v-1l-15-3.5l6-1.5v-1L445,24z"/>
	</g>
</g>
<g>
	<g>
		<g>
			<polygon points="273,68 273,71 301,71 300,68 			"/>
			<polygon points="273,61 273,64 299,64 298,61 			"/>
		</g>
		<g>
			<polygon points="57,92 57,95 307,95 306,92 			"/>
			<polygon points="57,85 57,88 305,88 304,85 			"/>
		</g>
	</g>
	<path d="M9,0v86c0,3,4.1,4,7,4c3,0,6-3,6-6V18h9v68c0,3,3.8,5,7,5c3,0,6-3,6-6c0-25.3,0-50.7,0-76h9v65h18.2c2.6,0,4.8-2.1,4.8-4.8
		V50.8c0-5.4,4.4-9.8,9.8-9.8H91c3,0,5,2,5,2v-2h7v28.6c0,2.4,2,4.4,4.4,4.4H130V41h7v2c5.5-5.5,19-2,19,6v22c0,1.7,1.3,3,3,3h19.9
		c2.8,0,5.1-2.3,5.1-5.1V49c0-8,14.5-11.5,20-6V1h7v68.1c0,2.7,2.2,4.9,4.9,4.9h18.6c2.5,0,4.5-2,4.5-4.5V49.8
		c0-4.9,3.9-8.8,8.8-8.8h7.2c1,0,3,1,4,2v-2h7v28.4c0,2.5,2,4.6,4.6,4.6H302l1,7h-37c-2.2,0-5-1.8-5-4c-0.5,0.6-4,4.8-10,5
		c-6.6,0.2-10.6-4.5-11-5c0,0.3,0,1.7-1.2,2.8c-0.7,0.7-1.7,1.2-2.8,1.2h-25c-2.2,0-5-1.8-5-4c-0.5,0.6-4,4.8-10,5
		c-6.6,0.2-10.6-4.5-11-5c0,0.3,0,1.7-1.2,2.8c-0.7,0.7-1.7,1.2-2.8,1.2h-24.4c-4.2,0-7.6-3.4-7.6-7.6V52.4c0-3-2.4-5.4-5.4-5.4
		h-1.2c-3,0-5.4,2.4-5.4,5.4V81h-34c-2.2,0-5-1.8-5-4c-1,0.9-4.5,3.8-10,4c-6.1,0.2-10.1-3.2-11-4c0,0,0,0,0,0c0,2.2-1.8,4-3.9,4H53
		v2.8C53,91,45,97,38,97c-10,0-11.5-5-11.5-5s-3.5,5-13,5C4,97,0,89.2,0,84V0H9z M251,74h2.9c2.8,0,5-2.3,5-5V53c0-2.8-2.3-5-5-5
		H251c-2.8,0-5,2.3-5,5V69C246,71.7,248.3,74,251,74z M196,75h2.9c2.8,0,5-2.3,5-5V52c0-2.8-2.3-5-5-5H196c-2.8,0-5,2.3-5,5V70
		C191,72.7,193.3,75,196,75z M88,74H91c2.8,0,5-2.3,5-5V53c0-2.8-2.3-5-5-5H88c-2.8,0-5,2.3-5,5V69C83,71.7,85.3,74,88,74z"/>
</g>
</svg>
