<?xml version="1.0" standalone="no"?>
<!DOCTYPE svg PUBLIC "-//W3C//DTD SVG 20010904//EN"
 "http://www.w3.org/TR/2001/REC-SVG-20010904/DTD/svg10.dtd">
<svg version="1.0" xmlns="http://www.w3.org/2000/svg"
 width="1600.000000pt" height="1600.000000pt" viewBox="0 0 1600.000000 1600.000000"
 preserveAspectRatio="xMidYMid meet">
<metadata>
Created by potrace 1.14, written by Peter Selinger 2001-2017
</metadata>
<g transform="translate(0.000000,1600.000000) scale(0.100000,-0.100000)"
fill="#000000" stroke="none">
<path d="M8000 11230 c0 -27 -3 -30 -30 -30 l-30 0 0 -3200 0 -3200 30 0 c27
0 30 -3 30 -30 l0 -30 1400 0 1400 0 0 60 0 60 -1370 0 -1370 0 0 3140 0 3140
1370 0 1370 0 0 60 0 60 -1400 0 -1400 0 0 -30z"/>
<path d="M12000 11230 c0 -27 -3 -30 -30 -30 l-30 0 0 -3200 0 -3200 30 0 c27
0 30 -3 30 -30 l0 -30 1400 0 1400 0 0 60 0 60 -1370 0 -1370 0 0 1540 0 1540
1170 0 1170 0 0 60 0 60 -1170 0 -1170 0 0 1540 0 1540 1370 0 1370 0 0 60 0
60 -1400 0 -1400 0 0 -30z"/>
<path d="M820 11210 c-8 -5 -30 -10 -47 -10 l-33 0 0 -3200 0 -3200 60 0 60 0
2 3068 3 3067 1540 -3078 c1390 -2778 1542 -3077 1560 -3071 11 3 37 8 58 11
l37 5 0 3199 0 3199 -60 0 -60 0 -2 -3067 -3 -3068 -1540 3078 c-847 1692
-1544 3077 -1550 3077 -5 0 -17 -5 -25 -10z"/>
<path d="M5940 8000 l0 -3200 60 0 60 0 0 3200 0 3200 -60 0 -60 0 0 -3200z"/>
</g>
</svg>
