<?xml version="1.0" encoding="UTF-8"?>
<svg width="479px" height="141px" viewBox="0 0 479 141" xmlns="http://www.w3.org/2000/svg" xmlns:xlink="http://www.w3.org/1999/xlink" version="1.1">
 <!-- Generated by Pixelmator Pro 2.1.2 -->
 <path id="Shape-copy" d="M-0 5 C28.149 5 35.852 5.431 37.351 6.114 38.863 6.803 40.025 8.376 40.398 10.239 40.729 11.895 41 33.24 41 57.673 41 102.095 41 102.095 43.646 104.548 46.292 107 46.292 107 70.396 107.006 83.653 107.009 98.169 107.298 102.654 107.647 110.808 108.282 110.808 108.282 109.036 112.391 108.062 114.651 105.691 119.103 103.768 122.285 101.845 125.467 98.523 130.269 96.386 132.958 94.249 135.646 91.375 138.415 90 139.11 88.187 140.028 78.841 140.467 56 140.708 27.585 141.008 24.001 140.863 19.404 139.226 16.601 138.228 12.415 135.913 10.103 134.081 7.791 132.25 4.576 128.445 2.959 125.626 0.019 120.5 0.019 120.5 0.009 62.75 L-0 5 Z M289.983 136 C232.767 136 232.767 136 233.214 133.662 233.459 132.377 248.403 103.014 266.421 68.412 284.44 33.811 299.902 4.938 300.782 4.25 301.975 3.318 309.487 3 330.308 3 356.987 3 358.212 3.083 357.749 4.85 357.483 5.868 352.143 16.627 345.883 28.76 339.622 40.893 334.825 51.148 335.223 51.55 335.62 51.951 337.564 51.045 339.541 49.536 341.519 48.028 348.802 41.552 355.725 35.147 362.648 28.741 372.405 19.731 377.406 15.124 382.408 10.517 387.85 5.907 389.5 4.878 391.866 3.403 394.454 3.007 401.75 3.004 406.838 3.002 411 3.26 411 3.579 411 3.897 408.412 6.544 405.25 9.46 402.087 12.376 390.612 22.51 379.75 31.98 368.888 41.449 360 49.54 360 49.959 360 50.378 362.362 51.005 365.25 51.352 368.138 51.699 376.462 51.987 383.75 51.991 391.038 51.996 397 52.276 397 52.613 397 52.95 394.962 55.936 392.472 59.249 389.982 62.562 386.398 68.486 384.509 72.414 382.62 76.342 380.557 81.968 379.925 84.916 379.292 87.864 378.976 92.698 379.222 95.66 379.57 99.856 380.298 101.702 382.521 104.022 384.755 106.353 386.242 107 389.371 107 391.57 107 395.328 106.052 397.722 104.892 400.812 103.397 403.1 101.184 405.602 97.274 409.127 91.763 409.127 91.763 414.562 92.214 417.552 92.462 420.304 92.97 420.678 93.344 421.052 93.718 420.612 96.381 419.7 99.262 418.789 102.143 416.346 107.368 414.271 110.873 412.197 114.378 408.106 119.436 405.18 122.113 402.255 124.79 397.08 128.52 393.68 130.402 390.281 132.283 384.35 134.811 380.5 136.018 375.415 137.612 370.217 138.316 361.5 138.591 353.387 138.846 347.445 138.502 343.156 137.528 339.666 136.736 334.838 135.132 332.425 133.964 330.013 132.796 325.876 129.896 323.232 127.519 320.588 125.142 317.223 120.988 315.754 118.288 314.284 115.589 312.51 110.367 311.812 106.683 311.113 103 310.098 100.134 309.556 100.315 309.015 100.495 306.849 103.761 304.744 107.571 302.638 111.382 298.456 119.337 295.45 125.25 L289.983 136 Z M456.06 138.107 C455.202 138.441 453.141 138.216 451.48 137.607 449.819 136.998 445.994 134.529 442.98 132.119 439.966 129.71 435.025 126.612 432 125.235 428.975 123.858 425.825 122.408 425 122.014 424.175 121.619 423.354 120.314 423.176 119.114 422.976 117.77 424.031 115.589 425.926 113.431 429 109.93 429 109.93 428.993 66.715 428.987 25.393 428.9 23.369 427.015 20.5 425.931 18.85 423.612 16.328 421.863 14.896 418.863 12.44 418.77 12.167 420.222 10.093 421.069 8.884 422.603 7.257 423.631 6.479 424.659 5.701 426.953 5.049 428.728 5.032 430.503 5.014 434.377 6.188 437.337 7.639 442.718 10.279 442.718 10.279 448.297 7.639 451.366 6.188 456.89 4.301 460.574 3.447 464.257 2.592 468.672 2.03 470.385 2.197 473.141 2.465 473.5 2.86 473.5 5.619 473.5 8.144 472.644 9.384 469 12.139 466.525 14.009 463.6 17.331 462.5 19.52 460.609 23.282 460.482 25.854 460.174 66.5 459.992 90.473 460.24 110.131 460.736 110.925 461.273 111.788 463.552 112.432 466.506 112.557 470.28 112.716 471.828 113.301 473.322 115.131 474.386 116.434 475.94 118.536 476.777 119.802 478.192 121.944 478.135 122.217 475.954 123.745 474.665 124.647 470.013 128.112 465.616 131.443 461.219 134.774 456.919 137.773 456.06 138.107 Z M174 137.399 C170.339 137.686 164.257 137.302 160.076 136.52 155.993 135.757 149.468 133.548 145.576 131.612 141.684 129.676 136.25 126.234 133.5 123.962 130.75 121.691 126.977 117.957 125.116 115.666 123.255 113.375 120.434 108.76 118.847 105.411 117.26 102.061 115.408 96.661 114.731 93.411 114.054 90.16 113.515 83.853 113.533 79.396 113.551 74.939 114.378 67.844 115.372 63.63 116.365 59.415 118.154 53.448 119.347 50.369 121.501 44.806 121.603 44.717 135.008 36.58 142.428 32.076 156.6 23.095 166.5 16.623 184.5 4.856 184.5 4.856 192 5.399 196.125 5.698 202.875 6.881 207 8.027 211.125 9.174 217.875 11.765 222 13.784 227.558 16.505 231.581 19.532 237.537 25.478 242.906 30.837 246.51 35.459 248.392 39.402 249.942 42.648 251.934 48.806 252.82 53.087 254.186 59.692 254.244 61.978 253.206 68.185 252.51 72.346 250.502 78.519 248.55 82.5 246.663 86.35 242.687 92.425 239.716 96 236.745 99.575 230.709 105.929 226.303 110.121 221.897 114.313 214.964 119.987 210.896 122.732 206.828 125.476 200.776 129.095 197.448 130.775 194.119 132.455 188.944 134.517 185.948 135.359 182.951 136.2 177.575 137.118 174 137.399 Z M175.5 117.551 C176.149 117.41 176.5 101.549 176.5 72.417 176.5 27.5 176.5 27.5 173.5 27.5 170.5 27.5 170.5 27.5 170 56.513 169.53 83.787 169.374 85.724 167.403 88.836 166.249 90.656 161.974 95.517 157.903 99.636 150.5 107.127 150.5 107.127 153.493 109.545 155.139 110.875 158.669 112.902 161.337 114.05 164.005 115.197 168.058 116.504 170.344 116.953 172.63 117.402 174.95 117.671 175.5 117.551 Z M189.404 117.668 C191.827 117.336 195.989 116.232 198.654 115.214 201.32 114.196 205.3 112.214 207.5 110.81 209.7 109.405 214.066 105.554 217.203 102.252 220.34 98.949 223.937 94.125 225.197 91.531 227.489 86.814 227.489 86.814 225.013 84.809 223.651 83.707 220.761 81.898 218.591 80.791 216.421 79.684 212.087 78.546 208.961 78.263 205.049 77.908 201.655 78.286 198.073 79.476 195.133 80.452 191.158 82.832 188.935 84.947 185 88.69 185 88.69 185 103.481 185 118.272 185 118.272 189.404 117.668 Z M144.372 99.718 C144.993 99.516 145.83 97.36 146.233 94.926 146.636 92.491 147.101 81.5 147.267 70.5 147.433 59.5 147.328 48.545 147.034 46.155 146.5 41.81 146.5 41.81 142.738 45.584 140.669 47.659 137.779 51.864 136.316 54.928 134.323 59.103 133.543 62.548 133.207 68.671 132.856 75.046 133.214 78.347 134.836 83.685 135.979 87.448 138.338 92.678 140.079 95.306 141.82 97.935 143.752 99.92 144.372 99.718 Z M185.815 77.833 C186.264 77.65 188.341 76.472 190.432 75.215 192.522 73.958 196.093 72.436 198.366 71.831 200.64 71.227 205.695 70.916 209.6 71.141 215.165 71.46 218.14 72.28 223.361 74.93 227.025 76.789 230.322 78.012 230.687 77.646 231.053 77.28 231.364 73.273 231.379 68.741 231.393 64.208 230.886 59.292 230.252 57.815 229.099 55.131 229.099 55.131 221.496 59.065 214.645 62.61 213.156 63 206.457 63 201.276 63 197.427 62.369 193.761 60.918 190.867 59.773 187.712 58.596 186.75 58.302 185.163 57.816 185 58.715 185 67.967 185 73.577 185.367 78.017 185.815 77.833 Z M205.072 54.978 C208.136 54.99 212.692 54.302 215.195 53.449 217.699 52.596 220.789 50.789 222.062 49.434 224.377 46.97 224.377 46.97 220.549 43.05 218.444 40.894 214.095 37.73 210.886 36.02 207.676 34.309 202.581 32.06 199.563 31.022 196.546 29.984 192.034 28.828 189.538 28.453 185 27.773 185 27.773 185 37.318 185 46.73 185.041 46.893 187.927 48.948 189.537 50.095 192.8 51.915 195.177 52.994 197.782 54.176 201.715 54.965 205.072 54.978 Z" fill="#000000" fill-opacity="1" stroke="none"/>
</svg>
